<svg width="273" height="240" viewBox="0 0 273 240" fill="none" xmlns="http://www.w3.org/2000/svg">
<path fill-rule="evenodd" clip-rule="evenodd" d="M50.7285 239.998L45.9409 222.13L36.2347 185.906L138.914 59.9372L18.498 59.9329L0 59.9323L10.8253 44.9326L32.772 14.523L175.927 14.5281L187.39 0.465742L191.158 14.5287L253.514 14.5309L272.012 14.5315L261.187 29.5312L239.24 59.9408L197.497 59.9393L62.4158 225.66L50.7285 239.998ZM199.306 44.9393L231.568 44.9405L242.689 29.5305L195.177 29.5288L199.306 44.9393ZM163.701 29.5277L40.4447 29.5233L29.3233 44.9333L151.14 44.9376L163.701 29.5277ZM170.491 44.9383L180.49 32.6716L183.777 44.9388L170.491 44.9383ZM158.265 59.9379L178.146 59.9386L57.6281 207.792L52.7095 189.436L158.265 59.9379Z" fill="white"/>
</svg>
